<svg preserveAspectRatio="xMidYMid meet" width="100%" height="100%" overflow="visible" style="display: block;" viewBox="0 0 144.271 18.8711" fill="none" xmlns="http://www.w3.org/2000/svg">
<g id="Group 1410111895">
<path id="Vector" d="M4.46704 0.0179446C3.57111 0.122741 2.65859 0.546233 1.74678 1.27981L1.73236 1.29129L1.7136 1.28842C1.59529 1.26904 1.49863 1.26904 1.376 1.26904C0.58034 1.32718 -0.037867 2.03061 0.0018079 2.8374C0.0602382 3.6327 0.768616 4.24856 1.57727 4.20837C2.24236 4.17104 2.81368 3.65926 2.93559 2.99316L2.93847 2.97952L2.94857 2.97019C3.52999 2.44262 4.12511 2.1835 4.76064 2.1835C4.83421 2.1835 4.90923 2.18709 4.98426 2.19426C5.83619 2.2926 6.73789 2.8374 7.74347 3.85881C8.73171 4.86298 9.74019 6.21672 10.683 7.52954L12.0651 9.47691C12.648 10.2973 13.2503 11.1458 13.8606 11.9403C14.4002 12.6158 15.1223 13.4692 15.9172 14.0678C16.7619 14.7038 17.5872 14.9514 18.4369 14.8251L18.7096 14.777L18.5538 14.5911C16.9481 12.9122 15.6511 11.0044 14.7039 9.61111L13.0866 7.27331C11.9346 5.61665 10.8461 4.05189 9.707 2.80654C8.00966 0.909429 6.50128 0.0179446 4.95973 0C4.72312 0 4.55793 0.00646005 4.46704 0.0179446Z" fill="var(--fill-0, #9EA6AE)"/>
<path id="Vector_2" d="M2.99562 8.26099L2.99418 8.27538C2.9343 9.01255 2.35433 9.58963 1.61637 9.64705C1.59185 9.64849 1.56732 9.64849 1.54279 9.64849C0.763727 9.64849 0.0971867 9.04623 0.040199 8.2761C0.000524048 7.46928 0.618731 6.76585 1.41583 6.70771H1.53414L3.93627 4.25865C4.28541 3.90119 4.76945 3.70021 5.26646 3.71744C5.74978 3.73036 6.18981 3.93564 6.50577 4.29525L6.58727 4.40866L2.99562 8.26027V8.26099Z" fill="var(--fill-0, #9EA6AE)"/>
<path id="Vector_3" d="M1.55146 12.028L1.52044 12.0265C0.706744 12.0265 0.0445353 12.6854 0.0445353 13.4958C0.0445353 14.3062 0.706744 14.9652 1.52116 14.9652C1.58897 14.9652 1.65389 14.9558 1.7217 14.9457L1.75056 14.9414C2.43008 14.8352 2.93792 14.2854 2.98697 13.5999V13.5856L9.08033 7.0257L7.75446 5.4387L1.55146 12.028Z" fill="var(--fill-0, #9EA6AE)"/>
<path id="Vector_4" d="M23.7958 15.8742C24.9219 15.7485 26.0328 15.1334 27.2014 13.99L27.2137 13.9785H27.3926C28.1868 13.9189 28.787 13.2162 28.7278 12.4116C28.6694 11.6156 27.9603 10.9983 27.1516 11.0398C26.4057 11.0987 25.8344 11.6751 25.794 12.4109V12.4252L25.7839 12.436C24.958 13.3727 24.1306 13.7854 23.2584 13.6986C22.4072 13.6002 21.5048 13.0554 20.5 12.034C19.5109 11.0291 18.5025 9.67537 17.5604 8.36256L16.174 6.40945C15.5925 5.59118 14.9916 4.7442 14.3828 3.95176C13.8425 3.27633 13.1204 2.42288 12.3255 1.82426C11.4808 1.1883 10.6563 0.940664 9.80577 1.06699L9.54531 1.09786L9.72783 1.27945C11.3343 2.95835 12.6321 4.86766 13.5792 6.26088L14.9151 8.19455C16.2684 10.1922 17.4053 11.7878 18.5559 13.0856C20.2525 14.9819 21.7609 15.8735 23.3032 15.8914C23.5469 15.8914 23.6768 15.8849 23.7958 15.8735V15.8742Z" fill="var(--fill-0, #9EA6AE)"/>
<path id="Vector_5" d="M27.2733 8.83997H27.3513C27.7487 8.82133 28.1109 8.65123 28.3691 8.36125C28.6281 8.07055 28.755 7.69157 28.7269 7.29316C28.6699 6.52155 28.0034 5.91933 27.2243 5.91933C27.1998 5.91933 27.176 5.91933 27.1514 5.92076C26.3933 5.9789 25.8133 6.57253 25.7729 7.33194V7.3477L21.6958 11.7011L21.7752 11.7959C22.0933 12.159 22.5405 12.365 23.0339 12.3751C23.0462 12.3751 23.0584 12.3751 23.07 12.3751C23.5533 12.3751 24.0164 12.1792 24.3439 11.8338L27.2719 8.83925L27.2733 8.83997Z" fill="var(--fill-0, #9EA6AE)"/>
<path id="Vector_6" d="M19.1872 9.06427L20.5303 10.6542L27.3926 3.3629L27.4071 3.36147C28.2056 3.28179 28.7849 2.59344 28.7264 1.79383C28.668 0.998523 27.9603 0.379075 27.1503 0.422142C26.3387 0.481 25.7328 1.16146 25.7724 1.9704V1.98762L19.1864 9.06427H19.1872Z" fill="var(--fill-0, #9EA6AE)"/>
<path id="Vector_7" d="M34.6938 13.2638L36.306 11.5275C37.3686 12.6415 38.8481 13.2831 40.4986 13.2831C42.5285 13.2831 43.4389 12.4907 43.4389 11.2633C43.4389 9.92323 42.1678 9.56432 39.9864 9.05467C37.5583 8.46968 35.206 7.63919 35.206 4.82622C35.206 2.31613 37.1413 0.503724 40.5938 0.503724C42.8517 0.503724 44.5779 1.24017 45.8865 2.52357L44.3874 4.27927C43.3818 3.26001 42.1108 2.63698 40.5555 2.63698C38.7911 2.63698 37.9183 3.46745 37.9183 4.56207C37.9183 5.88352 39.1323 6.16632 41.2762 6.69535C43.837 7.33704 46.1324 8.1302 46.1324 10.9992C46.1324 13.604 44.122 15.4164 40.4791 15.4164C37.9753 15.4164 36.0968 14.6613 34.693 13.2645L34.6938 13.2638Z" fill="var(--fill-0, #9EA6AE)"/>
<path id="Vector_8" d="M56.0847 5.07245L51.9304 15.8887C51.134 17.9653 50.1854 18.8711 48.3069 18.8711C47.6996 18.8711 47.2444 18.7771 46.9032 18.6637V16.814C47.1499 16.8707 47.4348 16.9274 47.7948 16.9274C48.7052 16.9274 49.2368 16.5878 49.5968 15.4552L45.6134 5.07316H48.3264L50.8873 12.5668H50.9255L53.4864 5.07316H56.0854L56.0847 5.07245Z" fill="var(--fill-0, #9EA6AE)"/>
<path id="Vector_9" d="M59.5352 6.43205C60.1801 5.43147 61.1669 4.86513 62.5137 4.86513C63.8605 4.86513 64.98 5.46951 65.511 6.48876C66.2314 5.39414 67.3513 4.86513 68.7164 4.86513C70.8038 4.86513 72.1886 6.16791 72.1886 8.13107V15.2098H69.628V8.54595C69.628 7.60206 69.0779 6.86632 67.9205 6.86632C66.6678 6.86632 65.8903 7.73482 65.8903 8.9048V15.2098H63.3296V8.54595C63.3296 7.60206 62.7604 6.86632 61.6408 6.86632C60.3886 6.86632 59.5922 7.73482 59.5922 8.9048V15.2098H57.0314V5.07329H59.4407L59.4977 6.43205H59.5359H59.5352Z" fill="var(--fill-0, #9EA6AE)"/>
<path id="Vector_10" d="M76.129 13.9064H76.0916V18.6631H73.5309V5.07257H75.9404L75.9969 6.58276H76.0351C76.8126 5.50683 77.989 4.86513 79.3357 4.86513C82.0863 4.86513 83.7183 7.13047 83.7183 10.0942C83.7183 13.0579 82.0107 15.4173 79.2602 15.4173C77.9319 15.4173 76.8888 14.8703 76.1297 13.9071L76.129 13.9064ZM81.1188 10.1308C81.1188 8.41314 80.3413 6.86561 78.5582 6.86561C76.8704 6.86561 76.016 8.3378 76.016 10.1875C76.016 12.0372 76.9079 13.4153 78.5392 13.4153C80.2657 13.4153 81.1195 11.9619 81.1195 10.1308H81.1188Z" fill="var(--fill-0, #9EA6AE)"/>
<path id="Vector_11" d="M85.0509 0.712546H87.6115V6.4505H87.649C88.2938 5.44991 89.3565 4.86492 90.7223 4.86492C92.8274 4.86492 94.1939 6.24307 94.1939 8.31959V15.2096H91.6332V8.7352C91.6332 7.69661 91.0259 6.86683 89.812 6.86683C88.4463 6.86683 87.6109 7.82937 87.6109 9.11275V15.2096H85.0503V0.712546H85.0509Z" fill="var(--fill-0, #9EA6AE)"/>
<path id="Vector_12" d="M95.5637 10.1502C95.5637 7.12975 97.4224 4.86513 100.8 4.86513C104.178 4.86513 106.036 7.13047 106.036 10.1502C106.036 13.1699 104.177 15.4165 100.8 15.4165C97.423 15.4165 95.5637 13.1512 95.5637 10.1502ZM98.1624 10.1502C98.1624 12.0186 99.0353 13.4534 100.8 13.4534C102.564 13.4534 103.436 12.0186 103.436 10.1502C103.436 8.28182 102.563 6.82827 100.8 6.82827C99.0359 6.82827 98.1624 8.26311 98.1624 10.1502Z" fill="var(--fill-0, #9EA6AE)"/>
<path id="Vector_13" d="M107.371 5.07257H109.78L109.837 6.50742H109.875C110.501 5.48817 111.601 4.86513 112.986 4.86513C115.13 4.86513 116.514 6.26194 116.514 8.35716V15.2091H113.953V8.7347C113.953 7.69604 113.327 6.86633 112.132 6.86633C110.766 6.86633 109.931 7.82887 109.931 9.11225V15.2091H107.37V5.07257H107.371Z" fill="var(--fill-0, #9EA6AE)"/>
<path id="Vector_14" d="M127.483 5.07245L123.328 15.8887C122.531 17.9653 121.583 18.8711 119.705 18.8711C119.097 18.8711 118.642 18.7771 118.301 18.6637V16.814C118.548 16.8707 118.832 16.9274 119.193 16.9274C120.103 16.9274 120.635 16.5878 120.995 15.4552L117.011 5.07316H119.724L122.285 12.5668H122.323L124.884 5.07316H127.483L127.483 5.07245Z" fill="var(--fill-0, #9EA6AE)"/>
<path id="Vector_15" d="M136.59 11.6609H130.52L129.249 15.2096H126.499L131.981 0.712546H135.225L140.707 15.2096H137.861L136.59 11.6609ZM135.813 9.509L133.574 3.28005H133.536L131.298 9.509H135.813Z" fill="var(--fill-0, #9EA6AE)"/>
<path id="Vector_16" d="M144.271 0.712546H141.578V15.2096H144.271V0.712546Z" fill="var(--fill-0, #9EA6AE)"/>
</g>
</svg>
