<svg preserveAspectRatio="none" width="100%" height="100%" overflow="visible" style="display: block;" viewBox="0 0 193 81" fill="none" xmlns="http://www.w3.org/2000/svg">
<g id="Group 1410112100">
<g id="Integritty">
<path d="M106.12 34.3227H88.8066V36.5363H106.12V34.3227Z" fill="var(--fill-0, white)"/>
<path d="M116.263 37.5775H113.89V47.9373H116.263V37.5775Z" fill="var(--fill-0, white)"/>
<path d="M113.89 34.3227H111.368V36.5344H116.263V29.1667H113.89V34.3227Z" fill="var(--fill-0, white)"/>
<path d="M119.53 29.1667H117.157V34.3227H119.53V29.1667Z" fill="var(--fill-0, white)"/>
<path d="M117.157 35.3479V47.9373H119.53V37.7208H122.052V35.3479H117.157Z" fill="var(--fill-0, white)"/>
<path d="M108.71 33.821C108.305 33.8215 107.917 33.9826 107.631 34.2688C107.345 34.555 107.184 34.9431 107.183 35.3479C107.183 35.5989 107.245 35.846 107.363 36.0673C107.482 36.2887 107.653 36.4774 107.862 36.6168C108.07 36.7563 108.31 36.8421 108.56 36.8668C108.81 36.8914 109.062 36.8541 109.294 36.7582C109.526 36.6622 109.73 36.5106 109.89 36.3166C110.049 36.1227 110.158 35.8925 110.207 35.6464C110.256 35.4002 110.244 35.1458 110.171 34.9055C110.099 34.6653 109.968 34.4466 109.791 34.2689C109.651 34.1248 109.482 34.0107 109.296 33.9337C109.111 33.8567 108.911 33.8183 108.71 33.821Z" fill="var(--fill-0, white)"/>
<path d="M60.6935 33.821C60.4924 33.8183 60.2928 33.8567 60.1069 33.9337C59.9211 34.0107 59.7529 34.1248 59.6126 34.2689C59.327 34.5558 59.1667 34.9441 59.1667 35.3489C59.1667 35.7537 59.327 36.142 59.6126 36.4288C59.753 36.5727 59.9212 36.6865 60.1071 36.7632C60.293 36.8398 60.4925 36.8778 60.6935 36.8748C60.8946 36.8778 61.0941 36.8398 61.2799 36.7632C61.4658 36.6865 61.6341 36.5727 61.7745 36.4288C62.06 36.142 62.2204 35.7537 62.2204 35.3489C62.2204 34.9441 62.06 34.5558 61.7745 34.2689C61.6342 34.1248 61.466 34.0107 61.2801 33.9337C61.0943 33.8567 60.8947 33.8183 60.6935 33.821Z" fill="var(--fill-0, white)"/>
<path d="M61.8641 38.0752H59.523V47.8736H61.8641V38.0752Z" fill="var(--fill-0, white)"/>
<path d="M68.3578 37.7746C67.3626 37.7905 66.4098 38.1799 65.6883 38.8655V38.0692H63.4228V47.8795H65.7639V42.5046C65.7473 41.8518 65.968 41.2153 66.385 40.7129C66.5596 40.4851 66.785 40.3012 67.0431 40.1757C67.3012 40.0503 67.5851 39.9868 67.8721 39.9903C69.174 39.9903 69.7951 40.6094 69.829 41.9292V47.8795H72.1701V41.7939C72.1701 40.5317 71.8376 39.5364 71.1747 38.8376C70.5118 38.1389 69.5662 37.7746 68.3578 37.7746Z" fill="var(--fill-0, white)"/>
<path d="M82.7249 37.7746C82.0699 37.7571 81.4189 37.8818 80.8167 38.1403C80.2146 38.3987 79.6757 38.7847 79.2372 39.2716C78.3393 40.267 77.8835 41.5012 77.8835 42.9744C77.8835 44.4475 78.3513 45.7096 79.273 46.6851C79.7278 47.1697 80.2802 47.5525 80.8938 47.8081C81.5073 48.0637 82.168 48.1865 82.8324 48.1682C83.7606 48.1864 84.6759 47.9488 85.4781 47.4814C86.2551 47.017 86.8883 46.3466 87.3076 45.5444L87.4569 45.2617L85.3726 44.2365L85.2293 44.4953C84.6579 45.4906 83.9014 45.9863 82.912 45.9863C82.2553 45.9925 81.6202 45.7512 81.1333 45.3104C80.6464 44.8695 80.3433 44.2616 80.2843 43.6074H87.4509L87.4967 43.1416V43.1018C87.4967 41.4435 87.0627 40.1296 86.2067 39.194C85.3507 38.2583 84.1702 37.7746 82.7249 37.7746ZM81.212 40.4919C81.6221 40.1409 82.1474 39.9537 82.6871 39.9664C83.4018 39.9664 83.9512 40.1475 84.3633 40.5158C84.6784 40.7876 84.8982 41.1532 84.9904 41.559H80.4933C80.6325 41.1451 80.8808 40.7765 81.212 40.4919Z" fill="var(--fill-0, white)"/>
<path d="M131.004 38.324L128.643 44.2066L126.099 38.0752H123.537L127.459 46.9857C126.662 48.8908 125.129 52.5 125.129 52.5H127.391L133.662 38.0752H131.386C131.305 38.0747 131.226 38.098 131.158 38.1422C131.09 38.1865 131.036 38.2497 131.004 38.324Z" fill="var(--fill-0, white)"/>
<path d="M79.7627 34.3227H76.7448C76.6355 34.3227 76.5307 34.2792 76.4534 34.202C76.3761 34.1247 76.3327 34.0199 76.3327 33.9106V29.2304H73.9916V34.3227H71.9591V36.5324H73.9916V47.8795H76.3327V36.5324H79.7627V34.3227Z" fill="var(--fill-0, white)"/>
<path d="M96.3734 38.8974C96.0937 38.6285 95.7749 38.4036 95.4278 38.2305C94.8234 37.9262 94.1554 37.7699 93.4788 37.7746C92.8477 37.773 92.2238 37.9087 91.6504 38.1724C91.077 38.436 90.5679 38.8213 90.1583 39.3015C89.2587 40.3103 88.7756 41.623 88.8066 42.9744C88.7786 44.3315 89.2618 45.6496 90.1603 46.6672C90.573 47.1415 91.083 47.5215 91.6556 47.7812C92.2282 48.0409 92.8501 48.1742 93.4788 48.1722C94.1546 48.1768 94.8217 48.0212 95.4258 47.7183C95.7732 47.5447 96.0927 47.3199 96.3734 47.0514V47.1708C96.3734 48.0706 96.1365 48.7813 95.6706 49.281C95.2048 49.7807 94.5598 50.0255 93.7038 50.0255C93.193 50.039 92.6913 49.8883 92.2725 49.5955C91.8716 49.3176 91.5713 48.9174 91.4164 48.4548L91.3089 48.1443L89.1092 49.056L89.2028 49.3308C89.3502 49.7588 89.5704 50.1582 89.8537 50.5113C90.143 50.8668 90.487 51.1739 90.873 51.421C91.2784 51.6787 91.7189 51.8765 92.1809 52.0083C92.6779 52.1508 93.1927 52.2219 93.7098 52.2193C95.1869 52.2193 96.3953 51.7595 97.2931 50.8537C98.1909 49.9479 98.6388 48.7216 98.6388 47.1708V38.0752H96.3734V38.8974ZM96.3734 42.9744C96.3734 43.8881 96.1245 44.6048 95.6129 45.1642C95.3862 45.4296 95.1025 45.6405 94.783 45.7811C94.4635 45.9217 94.1164 45.9885 93.7675 45.9764C93.4157 45.9829 93.0669 45.9111 92.7464 45.7662C92.4258 45.6212 92.1415 45.4067 91.9141 45.1383C91.3919 44.54 91.1197 43.7638 91.1537 42.9704C91.1189 42.1749 91.3928 41.3968 91.9181 40.7985C92.1452 40.5308 92.4289 40.317 92.7487 40.1724C93.0686 40.0278 93.4165 39.956 93.7675 39.9624C94.1188 39.9538 94.4675 40.0245 94.7877 40.1692C95.1079 40.314 95.3913 40.5291 95.6169 40.7985C96.1399 41.3993 96.4109 42.1787 96.3734 42.9744Z" fill="var(--fill-0, white)"/>
<path d="M104.754 37.8124C104.124 37.8272 103.511 38.0228 102.989 38.3758C102.743 38.5284 102.517 38.7117 102.318 38.9212V38.0752H100.05V47.8795H102.393V42.5046C102.385 41.8997 102.615 41.3159 103.032 40.8781C103.212 40.664 103.437 40.4917 103.69 40.3734C103.944 40.2551 104.22 40.1937 104.5 40.1933C104.802 40.1745 105.104 40.2109 105.393 40.3008L105.706 40.4282L106.415 38.1727L106.158 38.0632C105.712 37.8847 105.234 37.7993 104.754 37.8124Z" fill="var(--fill-0, white)"/>
<path d="M109.88 38.0752H107.539V47.8736H109.88V38.0752Z" fill="var(--fill-0, white)"/>
</g>
</g>
</svg>
