<svg preserveAspectRatio="none" width="100%" height="100%" overflow="visible" style="display: block;" viewBox="0 0 192 80" fill="none" xmlns="http://www.w3.org/2000/svg">
<g transform="translate(41 33)">
<g id="SAP Solutions">
<path d="M6.66667 13.2141V10.5471C6.66667 10.1329 7.00245 9.79713 7.41667 9.79713C7.83088 9.79713 8.16667 10.1329 8.16667 10.5471V13.2141C8.16649 13.6282 7.83077 13.9641 7.41667 13.9641C7.00256 13.9641 6.66684 13.6282 6.66667 13.2141Z" fill="var(--fill-0, white)"/>
<path d="M9.28146 3.28577C9.66413 3.12739 10.1035 3.3094 10.2619 3.69202C10.4203 4.07474 10.2384 4.51408 9.85568 4.67249L9.24044 4.9264C8.85771 5.0848 8.41837 4.90288 8.25997 4.52015C8.10198 4.13761 8.28381 3.69905 8.66622 3.54065L9.28146 3.28577Z" fill="var(--fill-0, white)"/>
<path d="M8.26095 1.90602C8.41968 1.52349 8.8579 1.34212 9.24044 1.50075L9.85568 1.75563C10.2383 1.91438 10.4197 2.35352 10.261 2.7361C10.1021 3.11838 9.66387 3.29989 9.28146 3.14137L8.66622 2.88551C8.2837 2.72678 8.10232 2.28857 8.26095 1.90602Z" fill="var(--fill-0, white)"/>
<path d="M10.1089 0.057415C10.4915 -0.101178 10.9297 0.0801115 11.0884 0.462688L11.3442 1.0789C11.5026 1.46132 11.3212 1.89966 10.939 2.05839C10.5564 2.21698 10.1171 2.03568 9.9585 1.65312L9.70362 1.03691C9.54502 0.654296 9.72631 0.216056 10.1089 0.057415Z" fill="var(--fill-0, white)"/>
<path d="M9.9585 4.77469C10.1173 4.3921 10.5564 4.21066 10.939 4.36941C11.3212 4.52822 11.5027 4.9665 11.3442 5.34891L11.0884 5.96414C10.9296 6.34668 10.4914 6.52807 10.1089 6.36941C9.72633 6.21067 9.54492 5.77249 9.70362 5.38992L9.9585 4.77469Z" fill="var(--fill-0, white)"/>
<path d="M11.7445 0.462688C11.9031 0.080044 12.3423 -0.101192 12.725 0.057415C13.1072 0.216201 13.2887 0.654466 13.1302 1.03691L12.8744 1.65312C12.7157 2.03557 12.2774 2.21696 11.8949 2.05839C11.5123 1.89979 11.3311 1.46152 11.4896 1.0789L11.7445 0.462688Z" fill="var(--fill-0, white)"/>
<path d="M11.8959 4.36844C12.2786 4.21051 12.7172 4.39302 12.8754 4.77567L13.1302 5.3909C13.2885 5.77369 13.1058 6.21312 12.723 6.37137C12.3403 6.52938 11.9017 6.34682 11.7435 5.96414L11.4886 5.34793C11.3307 4.96524 11.5132 4.52663 11.8959 4.36844Z" fill="var(--fill-0, white)"/>
<path d="M13.5938 1.50075C13.9764 1.3422 14.4147 1.52342 14.5733 1.90602C14.7318 2.28857 14.5504 2.72681 14.168 2.88551L13.5518 3.14137C13.1693 3.29984 12.7311 3.11834 12.5723 2.7361C12.4137 2.35346 12.5949 1.91424 12.9776 1.75563L13.5938 1.50075Z" fill="var(--fill-0, white)"/>
<path d="M12.5723 3.69202C12.7309 3.30944 13.1692 3.12815 13.5518 3.28675L14.168 3.54163C14.5505 3.70028 14.7318 4.1395 14.5733 4.5221C14.4145 4.90433 13.9762 5.08572 13.5938 4.92737L12.9776 4.67151C12.595 4.51287 12.4137 4.07463 12.5723 3.69202Z" fill="var(--fill-0, white)"/>
<path d="M0 9.2138V2.54681C8.61693e-05 1.99439 0.219727 1.46477 0.610352 1.07415C1.00098 0.683525 1.53059 0.463884 2.08301 0.463798H6.75C7.16421 0.463798 7.5 0.799585 7.5 1.2138C7.5 1.62801 7.16421 1.9638 6.75 1.9638H2.08301C1.92842 1.96388 1.78022 2.02538 1.6709 2.1347C1.56158 2.24402 1.50009 2.39221 1.5 2.54681V9.2138C1.5 9.36843 1.5616 9.51653 1.6709 9.62591C1.78022 9.73523 1.92842 9.79672 2.08301 9.79681H12.75C12.9047 9.79681 13.0527 9.7353 13.1621 9.62591C13.2715 9.51651 13.333 9.36851 13.333 9.2138V7.88079C13.333 7.46669 13.6689 7.13097 14.083 7.13079C14.4972 7.13079 14.833 7.46658 14.833 7.88079V9.2138C14.833 9.76633 14.6134 10.2958 14.2227 10.6865C13.832 11.0772 13.3025 11.2968 12.75 11.2968H2.08301C1.53059 11.2967 1.00098 11.0771 0.610352 10.6865C0.219753 10.2958 1.26264e-07 9.76626 0 9.2138Z" fill="var(--fill-0, white)"/>
<path d="M10.083 12.4638C10.4972 12.4638 10.833 12.7996 10.833 13.2138C10.833 13.628 10.4972 13.9638 10.083 13.9638H4.75C4.33579 13.9638 4 13.628 4 13.2138C4 12.7996 4.33579 12.4638 4.75 12.4638H10.083Z" fill="var(--fill-0, white)"/>
<path d="M12.6667 3.2138C12.6667 2.52344 12.107 1.9638 11.4167 1.9638C10.7263 1.9638 10.1667 2.52344 10.1667 3.2138C10.1667 3.90415 10.7263 4.4638 11.4167 4.4638C12.107 4.4638 12.6667 3.90415 12.6667 3.2138ZM14.1667 3.2138C14.1667 4.73258 12.9355 5.9638 11.4167 5.9638C9.89788 5.9638 8.66667 4.73258 8.66667 3.2138C8.66667 1.69501 9.89788 0.463798 11.4167 0.463798C12.9355 0.463798 14.1667 1.69501 14.1667 3.2138Z" fill="var(--fill-0, white)"/>
<path d="M110.646 6.44831L109.592 6.7466C109.526 6.57094 109.428 6.40025 109.299 6.23453C109.173 6.06549 109.001 5.92629 108.782 5.81691C108.563 5.70754 108.283 5.65285 107.942 5.65285C107.475 5.65285 107.085 5.76057 106.774 5.976C106.465 6.18813 106.311 6.45825 106.311 6.78637C106.311 7.07804 106.417 7.30839 106.629 7.47742C106.841 7.64646 107.173 7.78732 107.624 7.90001L108.757 8.17842C109.44 8.34414 109.949 8.59769 110.283 8.93907C110.618 9.27714 110.786 9.71298 110.786 10.2466C110.786 10.6841 110.66 11.0752 110.408 11.4199C110.159 11.7646 109.811 12.0364 109.364 12.2352C108.916 12.4341 108.396 12.5335 107.803 12.5335C107.024 12.5335 106.379 12.3645 105.869 12.0264C105.358 11.6884 105.035 11.1945 104.899 10.5449L106.013 10.2665C106.119 10.6775 106.319 10.9857 106.614 11.1912C106.913 11.3967 107.302 11.4994 107.783 11.4994C108.33 11.4994 108.764 11.3834 109.085 11.1514C109.41 10.9161 109.573 10.6344 109.573 10.3063C109.573 10.0411 109.48 9.81904 109.294 9.64007C109.108 9.45778 108.823 9.32188 108.439 9.2324L107.166 8.9341C106.467 8.76838 105.953 8.51152 105.625 8.1635C105.3 7.81218 105.138 7.37302 105.138 6.84603C105.138 6.41516 105.259 6.03401 105.501 5.70257C105.746 5.37113 106.079 5.11095 106.5 4.92203C106.924 4.73311 107.405 4.63865 107.942 4.63865C108.698 4.63865 109.291 4.80437 109.722 5.13581C110.156 5.46724 110.464 5.90474 110.646 6.44831Z" fill="var(--fill-0, white)"/>
<path d="M98.5011 7.78069V12.3744H97.3278V4.73808H98.4614V5.93126H98.5608C98.7398 5.54348 99.0115 5.23192 99.3761 4.9966C99.7407 4.75796 100.211 4.63865 100.788 4.63865C101.305 4.63865 101.758 4.74471 102.145 4.95683C102.533 5.16564 102.835 5.48382 103.05 5.91137C103.266 6.33562 103.373 6.87255 103.373 7.52217V12.3744H102.2V7.60172C102.2 7.00181 102.044 6.53448 101.733 6.19973C101.421 5.86166 100.994 5.69262 100.45 5.69262C100.075 5.69262 99.7407 5.77383 99.4457 5.93623C99.1541 6.09864 98.9237 6.33562 98.7547 6.64717C98.5856 6.95872 98.5011 7.33656 98.5011 7.78069Z" fill="var(--fill-0, white)"/>
<path d="M92.3566 12.5335C91.6672 12.5335 91.0623 12.3695 90.542 12.0413C90.0249 11.7132 89.6206 11.2542 89.3289 10.6642C89.0405 10.0743 88.8964 9.38486 88.8964 8.59603C88.8964 7.80058 89.0405 7.10621 89.3289 6.51294C89.6206 5.91966 90.0249 5.45896 90.542 5.13083C91.0623 4.80271 91.6672 4.63865 92.3566 4.63865C93.046 4.63865 93.6492 4.80271 94.1662 5.13083C94.6866 5.45896 95.091 5.91966 95.3793 6.51294C95.671 7.10621 95.8168 7.80058 95.8168 8.59603C95.8168 9.38486 95.671 10.0743 95.3793 10.6642C95.091 11.2542 94.6866 11.7132 94.1662 12.0413C93.6492 12.3695 93.046 12.5335 92.3566 12.5335ZM92.3566 11.4796C92.8803 11.4796 93.3111 11.3453 93.6492 11.0769C93.9873 10.8084 94.2375 10.4554 94.3999 10.0179C94.5623 9.58041 94.6435 9.10645 94.6435 8.59603C94.6435 8.08562 94.5623 7.61 94.3999 7.16919C94.2375 6.72837 93.9873 6.37207 93.6492 6.10029C93.3111 5.82851 92.8803 5.69262 92.3566 5.69262C91.8329 5.69262 91.402 5.82851 91.064 6.10029C90.7259 6.37207 90.4757 6.72837 90.3133 7.16919C90.1509 7.61 90.0697 8.08562 90.0697 8.59603C90.0697 9.10645 90.1509 9.58041 90.3133 10.0179C90.4757 10.4554 90.7259 10.8084 91.064 11.0769C91.402 11.3453 91.8329 11.4796 92.3566 11.4796Z" fill="var(--fill-0, white)"/>
<path d="M86.2121 12.3744V4.73808H87.3853V12.3744H86.2121ZM86.8086 3.46535C86.5799 3.46535 86.3827 3.38746 86.217 3.23169C86.0546 3.07591 85.9734 2.88865 85.9734 2.6699C85.9734 2.45115 86.0546 2.26388 86.217 2.10811C86.3827 1.95233 86.5799 1.87444 86.8086 1.87444C87.0373 1.87444 87.2329 1.95233 87.3953 2.10811C87.561 2.26388 87.6439 2.45115 87.6439 2.6699C87.6439 2.88865 87.561 3.07591 87.3953 3.23169C87.2329 3.38746 87.0373 3.46535 86.8086 3.46535Z" fill="var(--fill-0, white)"/>
<path d="M84.7271 4.73808V5.7324H80.7698V4.73808H84.7271ZM81.9232 2.90853H83.0965V10.1869C83.0965 10.5184 83.1445 10.767 83.2406 10.9327C83.3401 11.0951 83.466 11.2045 83.6185 11.2608C83.7743 11.3138 83.9383 11.3404 84.1107 11.3404C84.2399 11.3404 84.346 11.3337 84.4288 11.3205C84.5117 11.3039 84.578 11.2906 84.6277 11.2807L84.8663 12.3347C84.7868 12.3645 84.6758 12.3943 84.5332 12.4242C84.3907 12.4573 84.2101 12.4739 83.9913 12.4739C83.6599 12.4739 83.3351 12.4026 83.0169 12.2601C82.702 12.1176 82.4402 11.9005 82.2314 11.6088C82.0259 11.3172 81.9232 10.9493 81.9232 10.5051V2.90853Z" fill="var(--fill-0, white)"/>
<path d="M78.3639 9.25228V4.73808H79.5371V12.3744H78.3639V11.0818H78.2843C78.1053 11.4696 77.8269 11.7994 77.4491 12.0712C77.0712 12.3396 76.594 12.4739 76.0173 12.4739C75.54 12.4739 75.1157 12.3695 74.7445 12.1607C74.3733 11.9485 74.0817 11.6304 73.8695 11.2061C73.6574 10.7786 73.5514 10.24 73.5514 9.59035V4.73808H74.7246V9.51081C74.7246 10.0676 74.8804 10.5118 75.192 10.8432C75.5068 11.1746 75.9079 11.3404 76.3951 11.3404C76.6868 11.3404 76.9834 11.2658 77.285 11.1166C77.5899 10.9675 77.8452 10.7388 78.0506 10.4305C78.2595 10.1223 78.3639 9.72956 78.3639 9.25228Z" fill="var(--fill-0, white)"/>
<path d="M71.6824 2.19262V12.3744H70.5091V2.19262H71.6824Z" fill="var(--fill-0, white)"/>
<path d="M65.5378 12.5335C64.8484 12.5335 64.2436 12.3695 63.7232 12.0413C63.2062 11.7132 62.8018 11.2542 62.5101 10.6642C62.2218 10.0743 62.0776 9.38486 62.0776 8.59603C62.0776 7.80058 62.2218 7.10621 62.5101 6.51294C62.8018 5.91966 63.2062 5.45896 63.7232 5.13083C64.2436 4.80271 64.8484 4.63865 65.5378 4.63865C66.2272 4.63865 66.8305 4.80271 67.3475 5.13083C67.8679 5.45896 68.2722 5.91966 68.5606 6.51294C68.8522 7.10621 68.9981 7.80058 68.9981 8.59603C68.9981 9.38486 68.8522 10.0743 68.5606 10.6642C68.2722 11.2542 67.8679 11.7132 67.3475 12.0413C66.8305 12.3695 66.2272 12.5335 65.5378 12.5335ZM65.5378 11.4796C66.0615 11.4796 66.4924 11.3453 66.8305 11.0769C67.1685 10.8084 67.4188 10.4554 67.5812 10.0179C67.7436 9.58041 67.8248 9.10645 67.8248 8.59603C67.8248 8.08562 67.7436 7.61 67.5812 7.16919C67.4188 6.72837 67.1685 6.37207 66.8305 6.10029C66.4924 5.82851 66.0615 5.69262 65.5378 5.69262C65.0142 5.69262 64.5833 5.82851 64.2452 6.10029C63.9072 6.37207 63.6569 6.72837 63.4945 7.16919C63.3321 7.61 63.2509 8.08562 63.2509 8.59603C63.2509 9.10645 63.3321 9.58041 63.4945 10.0179C63.6569 10.4554 63.9072 10.8084 64.2452 11.0769C64.5833 11.3453 65.0142 11.4796 65.5378 11.4796Z" fill="var(--fill-0, white)"/>
<path d="M59.5151 4.73808C59.4555 4.23429 59.2135 3.84319 58.7893 3.56478C58.365 3.28637 57.8447 3.14717 57.2282 3.14717C56.7774 3.14717 56.383 3.22009 56.0449 3.36592C55.7102 3.51175 55.4483 3.71227 55.2594 3.96748C55.0738 4.22269 54.981 4.5127 54.981 4.83751C54.981 5.10929 55.0456 5.34295 55.1749 5.5385C55.3075 5.73074 55.4765 5.89149 55.682 6.02075C55.8875 6.1467 56.1029 6.2511 56.3283 6.33396C56.5537 6.4135 56.7608 6.47814 56.9498 6.52785L57.9839 6.80626C58.249 6.87586 58.544 6.97198 58.8688 7.09461C59.1969 7.21724 59.5101 7.38462 59.8084 7.59674C60.11 7.80555 60.3586 8.07402 60.5542 8.40214C60.7497 8.73027 60.8475 9.13296 60.8475 9.61024C60.8475 10.1604 60.7033 10.6576 60.415 11.1017C60.1299 11.5458 59.7123 11.8988 59.1621 12.1607C58.6152 12.4225 57.9507 12.5534 57.1685 12.5534C56.4394 12.5534 55.808 12.4358 55.2743 12.2004C54.744 11.9651 54.3264 11.637 54.0215 11.2161C53.7199 10.7951 53.5492 10.3063 53.5094 9.74944H54.7822C54.8153 10.1339 54.9446 10.4521 55.1699 10.704C55.3986 10.9526 55.687 11.1382 56.035 11.2608C56.3863 11.3801 56.7642 11.4398 57.1685 11.4398C57.6392 11.4398 58.0617 11.3636 58.4363 11.2111C58.8108 11.0553 59.1074 10.8399 59.3262 10.5648C59.5449 10.2864 59.6543 9.96156 59.6543 9.59035C59.6543 9.25228 59.5599 8.97719 59.3709 8.76507C59.182 8.55295 58.9334 8.3806 58.6252 8.24802C58.317 8.11545 57.9839 7.99944 57.6259 7.90001L56.3731 7.54206C55.5776 7.31336 54.9479 6.98689 54.4839 6.56265C54.0198 6.13841 53.7878 5.58325 53.7878 4.89717C53.7878 4.32709 53.942 3.82993 54.2502 3.40569C54.5617 2.97814 54.9794 2.6467 55.503 2.41137C56.03 2.17274 56.6183 2.05342 57.2679 2.05342C57.9242 2.05342 58.5075 2.17108 59.0179 2.4064C59.5284 2.63841 59.9327 2.95659 60.231 3.36095C60.5326 3.7653 60.6917 4.22435 60.7083 4.73808H59.5151Z" fill="var(--fill-0, white)"/>
<path d="M41.6827 12.3744V2.19262H45.1231C45.9218 2.19262 46.5748 2.3368 47.0819 2.62515C47.5923 2.91019 47.9701 3.29632 48.2154 3.78353C48.4606 4.27075 48.5833 4.81431 48.5833 5.41422C48.5833 6.01412 48.4606 6.55934 48.2154 7.04987C47.9734 7.5404 47.5989 7.9315 47.0918 8.22316C46.5847 8.51152 45.9351 8.65569 45.1429 8.65569H42.677V7.56194H45.1032C45.65 7.56194 46.0892 7.46748 46.4206 7.27856C46.7521 7.08964 46.9924 6.83443 47.1415 6.51294C47.294 6.18813 47.3702 5.82189 47.3702 5.41422C47.3702 5.00654 47.294 4.64196 47.1415 4.32046C46.9924 3.99897 46.7504 3.74707 46.4157 3.56478C46.0809 3.37918 45.6368 3.28637 45.0833 3.28637H42.9157V12.3744H41.6827Z" fill="var(--fill-0, white)"/>
<path d="M32.9194 12.3744H31.6268L35.3654 2.19262H36.6381L40.3768 12.3744H39.0842L36.0415 3.80342H35.962L32.9194 12.3744ZM33.3967 8.39717H38.6069V9.49092H33.3967V8.39717Z" fill="var(--fill-0, white)"/>
<path d="M29.4222 4.73808C29.3626 4.23429 29.1206 3.84319 28.6964 3.56478C28.2721 3.28637 27.7518 3.14717 27.1353 3.14717C26.6845 3.14717 26.2901 3.22009 25.952 3.36592C25.6173 3.51175 25.3555 3.71227 25.1665 3.96748C24.9809 4.22269 24.8881 4.5127 24.8881 4.83751C24.8881 5.10929 24.9528 5.34295 25.082 5.5385C25.2146 5.73074 25.3836 5.89149 25.5891 6.02075C25.7946 6.1467 26.01 6.2511 26.2354 6.33396C26.4608 6.4135 26.668 6.47814 26.8569 6.52785L27.891 6.80626C28.1561 6.87586 28.4511 6.97198 28.7759 7.09461C29.104 7.21724 29.4172 7.38462 29.7155 7.59674C30.0172 7.80555 30.2657 8.07402 30.4613 8.40214C30.6568 8.73027 30.7546 9.13296 30.7546 9.61024C30.7546 10.1604 30.6104 10.6576 30.3221 11.1017C30.037 11.5458 29.6194 11.8988 29.0692 12.1607C28.5224 12.4225 27.8578 12.5534 27.0756 12.5534C26.3465 12.5534 25.7151 12.4358 25.1814 12.2004C24.6511 11.9651 24.2335 11.637 23.9286 11.2161C23.627 10.7951 23.4563 10.3063 23.4165 9.74944H24.6893C24.7224 10.1339 24.8517 10.4521 25.077 10.704C25.3057 10.9526 25.5941 11.1382 25.9421 11.2608C26.2934 11.3801 26.6713 11.4398 27.0756 11.4398C27.5463 11.4398 27.9689 11.3636 28.3434 11.2111C28.7179 11.0553 29.0145 10.8399 29.2333 10.5648C29.452 10.2864 29.5614 9.96156 29.5614 9.59035C29.5614 9.25228 29.467 8.97719 29.278 8.76507C29.0891 8.55295 28.8405 8.3806 28.5323 8.24802C28.2241 8.11545 27.891 7.99944 27.533 7.90001L26.2802 7.54206C25.4847 7.31336 24.855 6.98689 24.391 6.56265C23.927 6.13841 23.6949 5.58325 23.6949 4.89717C23.6949 4.32709 23.8491 3.82993 24.1573 3.40569C24.4689 2.97814 24.8865 2.6467 25.4101 2.41137C25.9371 2.17274 26.5254 2.05342 27.1751 2.05342C27.8313 2.05342 28.4146 2.17108 28.9251 2.4064C29.4355 2.63841 29.8398 2.95659 30.1381 3.36095C30.4397 3.7653 30.5988 4.22435 30.6154 4.73808H29.4222Z" fill="var(--fill-0, white)"/>
</g>
</g>
</svg>
