<svg preserveAspectRatio="xMidYMid meet" width="100%" height="100%" overflow="visible" style="display: block;" viewBox="0 0 135.14 60" fill="none" xmlns="http://www.w3.org/2000/svg">
<g id="Group 1410112021">
<g id="Rectangle 39958">
</g>
<g id="Vector">
<path fill-rule="evenodd" clip-rule="evenodd" d="M27.384 10L10 20.0004V40.0012L27.384 50L44.7664 40.0012V20.0004L27.384 10ZM25.411 31.4882V46.9497L16.9838 42.1171V30.5217L15.2975 29.5552V41.1506L11.9264 39.2189V23.7561L20.355 28.5887V40.1855L22.0399 41.1506V29.5552L25.411 31.4882ZM43.0695 27.1386V23.1163L29.1033 31.1609V35.1817L34.3408 32.165V44.2304L37.832 42.2193V30.1553L43.0695 27.1386ZM35.6851 17.3488L32.229 19.3286H32.2276L27.0421 22.2969H27.0406L25.3126 23.2868L28.7686 25.2666L30.4981 26.2551L27.0406 28.2349L23.5846 26.2565H23.5831L13.2106 20.3171L27.0406 12.3993L30.4995 14.3791L20.1256 20.3185L21.8551 21.307L23.5831 20.3185H23.5846L32.2276 15.369L35.6851 17.3488Z" fill="var(--fill-0, #9EA6AE)"/>
<path d="M60.0324 36.7601L55.5157 30.7209V36.7601H52.243V23.0842H55.5157V29.0844L59.9941 23.0842H63.841L58.6353 29.7857L64.0324 36.7601H60.0324Z" fill="var(--fill-0, #9EA6AE)"/>
<path d="M68.8604 27.7012C69.2432 27.1038 69.7217 26.6363 70.2958 26.2986C70.87 25.9479 71.5079 25.7726 72.2097 25.7726V29.2987H71.3102C70.4936 29.2987 69.8812 29.4805 69.4729 29.8442C69.0646 30.1949 68.8604 30.8183 68.8604 31.7144V36.7601H65.5877V25.8895H68.8604V27.7012Z" fill="var(--fill-0, #9EA6AE)"/>
<path d="M83.8409 31.1494C83.8409 31.4611 83.8218 31.7858 83.7835 32.1235H76.3768C76.4279 32.7989 76.6384 33.3184 77.0084 33.682C77.3912 34.0327 77.8569 34.208 78.4055 34.208C79.2221 34.208 79.7899 33.8574 80.1089 33.156H83.5921C83.4135 33.8703 83.0882 34.5132 82.6161 35.0847C82.1567 35.6561 81.5762 36.1042 80.8744 36.4289C80.1727 36.7536 79.388 36.9159 78.5204 36.9159C77.4741 36.9159 76.5427 36.6886 75.7261 36.2341C74.9095 35.7795 74.2716 35.1301 73.8123 34.2859C73.3529 33.4417 73.1233 32.4547 73.1233 31.3248C73.1233 30.1949 73.3466 29.2078 73.7931 28.3636C74.2525 27.5194 74.8904 26.87 75.707 26.4155C76.5236 25.9609 77.4614 25.7336 78.5204 25.7336C79.5539 25.7336 80.4725 25.9544 81.2764 26.396C82.0802 26.8376 82.7054 27.4675 83.1519 28.2857C83.6113 29.1039 83.8409 30.0585 83.8409 31.1494ZM80.4917 30.2728C80.4917 29.7013 80.3003 29.2468 79.9175 28.9091C79.5347 28.5714 79.0563 28.4026 78.4821 28.4026C77.9335 28.4026 77.4678 28.5649 77.085 28.8896C76.715 29.2143 76.4853 29.6754 76.396 30.2728H80.4917Z" fill="var(--fill-0, #9EA6AE)"/>
<path d="M84.9167 31.3053C84.9167 30.1884 85.1209 29.2078 85.5292 28.3636C85.9502 27.5194 86.518 26.87 87.2325 26.4155C87.947 25.9609 88.7445 25.7336 89.6249 25.7336C90.3777 25.7336 91.0347 25.8895 91.5962 26.2012C92.1703 26.5129 92.6105 26.922 92.9167 27.4285V25.8895H96.1894V36.7601H92.9167V35.221C92.5977 35.7276 92.1512 36.1367 91.577 36.4484C91.0156 36.7601 90.3585 36.9159 89.6057 36.9159C88.7381 36.9159 87.947 36.6886 87.2325 36.2341C86.518 35.7665 85.9502 35.1107 85.5292 34.2665C85.1209 33.4093 84.9167 32.4222 84.9167 31.3053ZM92.9167 31.3248C92.9167 30.4936 92.6871 29.8377 92.2277 29.3572C91.7812 28.8766 91.2325 28.6363 90.5818 28.6363C89.9311 28.6363 89.3761 28.8766 88.9167 29.3572C88.4702 29.8247 88.2469 30.4741 88.2469 31.3053C88.2469 32.1365 88.4702 32.7989 88.9167 33.2924C89.3761 33.7729 89.9311 34.0132 90.5818 34.0132C91.2325 34.0132 91.7812 33.7729 92.2277 33.2924C92.6871 32.8119 92.9167 32.156 92.9167 31.3248Z" fill="var(--fill-0, #9EA6AE)"/>
<path d="M104.509 33.9353V36.7601H102.844C101.658 36.7601 100.733 36.4679 100.069 35.8834C99.4056 35.286 99.0738 34.3184 99.0738 32.9807V28.6558H97.7724V25.8895H99.0738V23.24H102.347V25.8895H104.49V28.6558H102.347V33.0197C102.347 33.3443 102.423 33.5781 102.576 33.721C102.729 33.8638 102.985 33.9353 103.342 33.9353H104.509Z" fill="var(--fill-0, #9EA6AE)"/>
<path d="M111.193 36.9159C110.147 36.9159 109.203 36.6886 108.361 36.2341C107.532 35.7795 106.874 35.1301 106.39 34.2859C105.918 33.4417 105.681 32.4547 105.681 31.3248C105.681 30.2078 105.924 29.2273 106.409 28.3831C106.894 27.5259 107.557 26.87 108.399 26.4155C109.241 25.9609 110.185 25.7336 111.232 25.7336C112.278 25.7336 113.222 25.9609 114.064 26.4155C114.906 26.87 115.57 27.5259 116.055 28.3831C116.54 29.2273 116.782 30.2078 116.782 31.3248C116.782 32.4417 116.533 33.4288 116.036 34.2859C115.551 35.1301 114.881 35.7795 114.026 36.2341C113.184 36.6886 112.24 36.9159 111.193 36.9159ZM111.193 34.0327C111.819 34.0327 112.348 33.7989 112.782 33.3314C113.229 32.8638 113.452 32.1949 113.452 31.3248C113.452 30.4546 113.235 29.7857 112.801 29.3182C112.38 28.8506 111.857 28.6169 111.232 28.6169C110.594 28.6169 110.064 28.8506 109.643 29.3182C109.222 29.7728 109.012 30.4416 109.012 31.3248C109.012 32.1949 109.216 32.8638 109.624 33.3314C110.045 33.7989 110.568 34.0327 111.193 34.0327Z" fill="var(--fill-0, #9EA6AE)"/>
<path d="M121.791 27.7012C122.174 27.1038 122.652 26.6363 123.226 26.2986C123.8 25.9479 124.438 25.7726 125.14 25.7726V29.2987H124.241C123.424 29.2987 122.812 29.4805 122.403 29.8442C121.995 30.1949 121.791 30.8183 121.791 31.7144V36.7601H118.518V25.8895H121.791V27.7012Z" fill="var(--fill-0, #9EA6AE)"/>
</g>
</g>
</svg>
